# Blender v2.71 (sub 0) OBJ File: ''
# www.blender.org
mtllib floor.mtl
o Cube
v 500.000000 -0.100000 -500.000000
v 500.000000 -0.100000 500.000000
v -500.000000 -0.100000 500.000000
v -500.000000 -0.100000 -500.000000
v 500.000000 0.100000 -500.000000
v 500.000000 0.100000 500.000000
v -500.000000 0.100000 500.000000
v -500.000000 0.100000 -500.000000
vt 0 0 0
vt 1 0 0
vt 1 1 0
vt 0 1 0
vn 0.000000 -1.000000 0.000000
vn 0.000000 1.000000 0.000000
vn 1.000000 -0.000000 0.000000
vn -0.000000 -0.000000 1.000000
vn -1.000000 -0.000000 -0.000000
vn 0.000000 0.000000 -1.000000
usemtl Material
s off
#f 2//1 3//1 4//1
f 8/4/2 7/1/2 6/2/2
#f 1//3 5//3 6//3
#f 2//4 6//4 7//4
#f 7//5 8//5 4//5
#f 1//6 4//6 8//6
#f 1//1 2//1 4//1
f 5/3/2 8/4/2 6/2/2
#f 2//3 1//3 6//3
#f 3//4 2//4 7//4
#f 3//5 7//5 4//5
#f 5//6 1//6 8//6
