# This file uses centimeters as units for non-parametric coordinates.

mtllib robot.mtl
v 0.562598 -1.200998 1.578937
v 3.001775 -1.200998 1.578937
v 0.562598 0.833191 1.578937
v 3.726760 1.515808 1.578937
v 0.562598 0.833191 -1.585224
v 3.726760 1.515808 -1.585224
v 3.001775 -1.200997 -1.585224
v 0.562598 -1.200997 -1.585224
v 0.559833 0.551865 -1.268808
v 3.410342 1.234483 -1.268808
v 0.559833 0.551865 1.262521
v 3.410342 1.234482 1.262521
v 2.685357 -1.200997 -1.268808
v 0.559833 -1.200997 -1.268808
v 2.685357 -1.200998 1.262521
v 0.559833 -1.200998 1.262521
v 2.523137 -4.084194 0.561987
v 2.523137 -4.084193 -0.568274
v 2.523137 0.433054 0.561987
v 2.523137 0.433054 -0.568273
v 2.011184 -4.084193 -0.866608
v 2.011184 0.433054 -0.866608
v 0.565471 -4.084193 -0.850706
v 0.565471 0.433054 -0.850706
v 0.565471 -4.084194 0.844418
v 0.565471 0.433054 0.844419
v 2.011184 -4.084194 0.860320
v 2.011184 0.433054 0.860321
v 2.011184 -4.084193 -0.003144
v 2.011184 0.433054 -0.003143
v 0.600141 0.306590 -0.282121
v 0.600141 0.130179 -0.454538
v -0.032691 0.306590 -0.282121
v -0.032691 0.130179 -0.454538
v 0.600141 -0.087878 -0.454538
v -0.032691 -0.087878 -0.454538
v 0.600141 -0.264289 -0.282120
v -0.032691 -0.264289 -0.282120
v 0.600141 -0.331672 -0.003143
v -0.032691 -0.331672 -0.003143
v 0.600141 -0.264289 0.275834
v -0.032691 -0.264289 0.275834
v 0.600141 -0.087878 0.448251
v -0.032691 -0.087878 0.448251
v 0.600141 0.130179 0.448251
v -0.032691 0.130179 0.448251
v 0.600141 0.306590 0.275834
v -0.032691 0.306590 0.275834
v 0.600141 0.373973 -0.003143
v -0.032691 0.373973 -0.003143
v 0.600141 0.021151 -0.003143
v -0.032691 0.021151 -0.003143
vt 0.058824 0.000000
vt 0.529412 0.000000
vt 0.058824 0.250000
vt 0.529412 0.250000
vt 0.058824 0.500000
vt 0.529412 0.500000
vt 0.529412 0.750000
vt 0.058824 0.750000
vt 0.058824 0.750000
vt 0.529412 0.750000
vt 0.058824 1.000000
vt 0.529412 0.750000
vt 0.529412 1.000000
vt 1.000000 0.000000
vt 1.000000 0.250000
vt 0.529412 0.750000
vt 0.529412 0.750000
vt 0.058824 0.750000
vt 0.529412 1.000000
vt 0.529412 0.750000
vt 0.529412 0.750000
vt 0.529412 1.000000
vt 0.529412 1.000000
vt 0.529412 1.000000
vt 0.058824 1.000000
vt 0.529412 1.000000
vt 0.529412 1.000000
vt 0.058824 1.000000
vt 0.058824 1.000000
vt 0.058824 0.750000
vt 0.529412 0.750000
vt 0.058824 0.750000
vt 0.058824 0.750000
vt 0.529412 0.750000
vt 0.529412 0.750000
vt 0.529412 0.750000
vt 0.529412 1.000000
vt 0.529412 0.750000
vt 0.529412 0.750000
vt 0.529412 1.000000
vt 0.058824 1.000000
vt 0.529412 1.000000
vt 0.529412 1.000000
vt 0.058824 0.750000
vt 0.058824 0.750000
vt 0.058824 0.750000
vt 0.058824 0.750000
vt 0.058824 0.750000
vt 0.058824 1.000000
vt 0.058824 0.312500
vt 0.137255 0.312500
vt 0.058824 0.688440
vt 0.058824 0.688440
vt 0.137255 0.688440
vt 0.215686 0.312500
vt 0.215686 0.688440
vt 0.294118 0.312500
vt 0.294118 0.312500
vt 0.294118 0.688440
vt 0.294118 0.312500
vt 0.372549 0.312500
vt 0.294118 0.688440
vt 0.294118 0.688440
vt 0.372549 0.688440
vt 0.450980 0.312500
vt 0.450980 0.688440
vt 0.529412 0.312500
vt 0.529412 0.312500
vt 0.529412 0.688440
vt 0.147059 0.020934
vt 0.441177 0.020934
vt 0.294118 0.150000
vt 0.000000 0.156250
vt 0.294118 0.150000
vt 0.147059 0.291566
vt 0.000000 0.156250
vt 0.294118 0.150000
vt 0.441176 0.291566
vt 0.294118 0.150000
vt 0.588235 0.156250
vt 0.294118 0.150000
vt 0.588235 0.156250
vt 0.294118 0.150000
vt 0.441176 0.979066
vt 0.147059 0.979066
vt 0.294118 0.837500
vt 0.000000 0.843750
vt 0.294118 0.837500
vt 0.000000 0.843750
vt 0.147059 0.708434
vt 0.294118 0.837500
vt 0.441177 0.708434
vt 0.294118 0.837500
vt 0.588235 0.843750
vt 0.294118 0.837500
vt 0.588235 0.843750
vt 0.294118 0.837500
vt 0.058824 0.312500
vt 0.105882 0.312500
vt 0.058824 0.688440
vt 0.105882 0.688440
vt 0.152941 0.312500
vt 0.152941 0.688440
vt 0.200000 0.312500
vt 0.200000 0.688440
vt 0.247059 0.312500
vt 0.247059 0.688440
vt 0.294118 0.312500
vt 0.294118 0.688440
vt 0.341176 0.312500
vt 0.341176 0.688440
vt 0.388235 0.312500
vt 0.388235 0.688440
vt 0.435294 0.312500
vt 0.435294 0.688440
vt 0.482353 0.312500
vt 0.482353 0.688440
vt 0.529412 0.312500
vt 0.529412 0.688440
vt 0.385005 0.007647
vt 0.532064 0.064409
vt 0.294118 0.150000
vt 0.203230 0.007647
vt 0.056171 0.064409
vt 0.000000 0.156250
vt 0.056171 0.248091
vt 0.203230 0.304853
vt 0.385005 0.304853
vt 0.532064 0.248091
vt 0.588235 0.156250
vt 0.532064 0.935591
vt 0.385005 0.992353
vt 0.294118 0.837500
vt 0.203230 0.992353
vt 0.056171 0.935591
vt 0.000000 0.843750
vt 0.056171 0.751909
vt 0.203230 0.695147
vt 0.385005 0.695147
vt 0.532064 0.751909
vt 0.588235 0.843750
vn -0.111933 -0.135892 0.984380
vn 0.705690 -0.254027 0.661416
vn -0.222329 0.782273 0.581910
vn 0.558034 0.669134 0.490772
vn -0.227596 0.781317 -0.581158
vn 0.558035 0.669134 -0.490772
vn 0.704411 -0.260615 -0.660216
vn -0.111933 -0.135892 -0.984380
vn -0.060206 -0.773368 0.631093
vn -0.541733 -0.656906 0.524405
vn -0.032050 -0.774486 -0.631779
vn -0.541733 -0.656906 -0.524405
vn -0.688734 -0.089469 0.719472
vn -0.145154 -0.175035 0.973803
vn -0.690358 -0.057626 -0.721169
vn -0.145154 -0.175035 -0.973804
vn 0.937116 -0.095049 0.335826
vn 0.937116 -0.095049 -0.335826
vn 0.937116 0.095049 0.335826
vn 0.937116 0.095049 -0.335826
vn 0.140735 -0.169121 -0.975496
vn 0.140735 0.169121 -0.975496
vn -0.748584 -0.198889 -0.632508
vn -0.748584 0.198889 -0.632507
vn -0.748584 -0.198889 0.632508
vn -0.748584 0.198889 0.632507
vn 0.140734 -0.169121 0.975496
vn 0.140734 0.169121 0.975496
vn -0.000000 -1.000000 -0.000001
vn 0.000000 1.000000 0.000000
vn 0.445997 0.787516 -0.425330
vn 0.478257 0.351728 -0.804710
vn -0.445997 0.787516 -0.425329
vn -0.478257 0.351728 -0.804709
vn 0.478257 -0.351730 -0.804709
vn -0.478256 -0.351730 -0.804709
vn 0.445998 -0.787516 -0.425329
vn -0.445998 -0.787515 -0.425330
vn 0.427885 -0.903833 0.000000
vn -0.427885 -0.903833 -0.000000
vn 0.445997 -0.787515 0.425331
vn -0.445998 -0.787516 0.425330
vn 0.478256 -0.351729 0.804710
vn -0.478256 -0.351728 0.804710
vn 0.478256 0.351729 0.804710
vn -0.478256 0.351728 0.804710
vn 0.445997 0.787516 0.425330
vn -0.445997 0.787515 0.425331
vn 0.427885 0.903834 -0.000000
vn -0.427884 0.903834 -0.000000
vn 1.000000 0.000000 0.000000
vn -1.000000 -0.000000 0.000000
s 1
g polySurface75
usemtl ro4:blinn1SG
f 1/1/1 2/2/2 3/3/3
f 3/3/3 2/2/2 4/4/4
f 3/3/3 4/4/4 5/5/5
f 5/5/5 4/4/4 6/6/6
f 6/6/6 7/7/7 5/5/5
f 5/5/5 7/7/7 8/8/8
f 9/9/9 10/10/10 11/11/11
f 11/11/11 10/12/10 12/13/12
f 2/2/2 7/14/7 4/4/4
f 4/4/4 7/14/7 6/15/6
f 7/7/7 13/16/13 8/8/8
f 8/8/8 13/17/13 14/18/14
f 7/7/7 2/19/2 13/20/13
f 13/21/13 2/22/2 15/23/15
f 2/24/2 1/25/1 15/26/15
f 15/27/15 1/28/1 16/29/16
f 14/30/14 13/31/13 9/32/9
f 9/33/9 13/34/13 10/35/10
f 13/36/13 15/37/15 10/38/10
f 10/39/10 15/40/15 12/13/12
f 16/41/16 11/11/11 15/42/15
f 15/43/15 11/11/11 12/13/12
f 14/44/14 9/45/9 8/8/8
f 8/8/8 9/46/9 5/5/5
f 5/5/5 9/47/9 3/3/3
f 9/48/9 11/11/11 3/3/3
f 3/3/3 11/11/11 1/1/1
f 11/11/11 16/49/16 1/1/1
s 3
usemtl ro4:blinn4SG
f 17/50/17 18/51/18 19/52/19
f 19/53/19 18/51/18 20/54/20
f 18/51/18 21/55/21 20/54/20
f 20/54/20 21/55/21 22/56/22
f 21/55/21 23/57/23 22/56/22
f 22/56/22 23/58/23 24/59/24
f 23/60/23 25/61/25 24/62/24
f 24/63/24 25/61/25 26/64/26
f 25/61/25 27/65/27 26/64/26
f 26/64/26 27/65/27 28/66/28
f 27/65/27 17/67/17 28/66/28
f 28/66/28 17/68/17 19/69/19
f 18/70/18 17/71/17 29/72/29
f 21/73/21 18/70/18 29/74/29
f 23/75/23 21/76/21 29/77/29
f 25/78/25 23/75/23 29/79/29
f 27/80/27 25/78/25 29/81/29
f 17/71/17 27/82/27 29/83/29
f 19/84/19 20/85/20 30/86/30
f 20/85/20 22/87/22 30/88/30
f 22/89/22 24/90/24 30/91/30
f 24/90/24 26/92/26 30/93/30
f 26/92/26 28/94/28 30/95/30
f 28/96/28 19/84/19 30/97/30
s 4
f 31/98/31 32/99/32 33/100/33
f 33/100/33 32/99/32 34/101/34
f 32/99/32 35/102/35 34/101/34
f 34/101/34 35/102/35 36/103/36
f 35/102/35 37/104/37 36/103/36
f 36/103/36 37/104/37 38/105/38
f 37/104/37 39/106/39 38/105/38
f 38/105/38 39/106/39 40/107/40
f 39/106/39 41/108/41 40/107/40
f 40/107/40 41/108/41 42/109/42
f 41/108/41 43/110/43 42/109/42
f 42/109/42 43/110/43 44/111/44
f 43/110/43 45/112/45 44/111/44
f 44/111/44 45/112/45 46/113/46
f 45/112/45 47/114/47 46/113/46
f 46/113/46 47/114/47 48/115/48
f 47/114/47 49/116/49 48/115/48
f 48/115/48 49/116/49 50/117/50
f 49/116/49 31/118/31 50/117/50
f 50/117/50 31/118/31 33/119/33
f 32/120/32 31/121/31 51/122/51
f 35/123/35 32/120/32 51/122/51
f 37/124/37 35/123/35 51/122/51
f 39/125/39 37/124/37 51/122/51
f 41/126/41 39/125/39 51/122/51
f 43/127/43 41/126/41 51/122/51
f 45/128/45 43/127/43 51/122/51
f 47/129/47 45/128/45 51/122/51
f 49/130/49 47/129/47 51/122/51
f 31/121/31 49/130/49 51/122/51
f 33/131/33 34/132/34 52/133/52
f 34/132/34 36/134/36 52/133/52
f 36/134/36 38/135/38 52/133/52
f 38/135/38 40/136/40 52/133/52
f 40/136/40 42/137/42 52/133/52
f 42/137/42 44/138/44 52/133/52
f 44/138/44 46/139/46 52/133/52
f 46/139/46 48/140/48 52/133/52
f 48/140/48 50/141/50 52/133/52
f 50/141/50 33/131/33 52/133/52
